<svg width="120" height="120" viewBox="0 0 120 120" fill="none" xmlns="http://www.w3.org/2000/svg">
<foreignObject x="-76" y="-68" width="256" height="240"><div xmlns="http://www.w3.org/1999/xhtml" style="backdrop-filter:blur(50px);clip-path:url(#bgblur_0_74_2367_clip_path);height:100%;width:100%"></div></foreignObject><g filter="url(#filter0_i_74_2367)" data-figma-bg-blur-radius="100">
<path d="M74 32H30C26.6863 32 24 34.6863 24 38V66C24 69.3137 26.6863 72 30 72H74C77.3137 72 80 69.3137 80 66V38C80 34.6863 77.3137 32 74 32Z" fill="url(#paint0_linear_74_2367)" fill-opacity="0.1"/>
<path d="M30 32.5H74C77.0376 32.5 79.5 34.9624 79.5 38V66C79.5 69.0376 77.0376 71.5 74 71.5H30C26.9624 71.5 24.5 69.0376 24.5 66V38C24.5 34.9624 26.9624 32.5 30 32.5Z" stroke="url(#paint1_linear_74_2367)"/>
</g>
<foreignObject x="-26" y="-42" width="220" height="220"><div xmlns="http://www.w3.org/1999/xhtml" style="backdrop-filter:blur(50px);clip-path:url(#bgblur_1_74_2367_clip_path);height:100%;width:100%"></div></foreignObject><g filter="url(#filter1_i_74_2367)" data-figma-bg-blur-radius="100">
<path d="M84 78C89.5228 78 94 73.5228 94 68C94 62.4772 89.5228 58 84 58C78.4772 58 74 62.4772 74 68C74 73.5228 78.4772 78 84 78Z" fill="url(#paint2_linear_74_2367)" fill-opacity="0.1"/>
<path d="M84 58.5C89.2467 58.5 93.5 62.7533 93.5 68C93.5 73.2467 89.2467 77.5 84 77.5C78.7533 77.5 74.5 73.2467 74.5 68C74.5 62.7533 78.7533 58.5 84 58.5Z" stroke="url(#paint3_linear_74_2367)"/>
</g>
<defs>
<filter id="filter0_i_74_2367" x="-76" y="-68" width="256" height="240" filterUnits="userSpaceOnUse" color-interpolation-filters="sRGB">
<feFlood flood-opacity="0" result="BackgroundImageFix"/>
<feBlend mode="normal" in="SourceGraphic" in2="BackgroundImageFix" result="shape"/>
<feColorMatrix in="SourceAlpha" type="matrix" values="0 0 0 0 0 0 0 0 0 0 0 0 0 0 0 0 0 0 127 0" result="hardAlpha"/>
<feOffset/>
<feGaussianBlur stdDeviation="0.5"/>
<feComposite in2="hardAlpha" operator="arithmetic" k2="-1" k3="1"/>
<feColorMatrix type="matrix" values="0 0 0 0 1 0 0 0 0 1 0 0 0 0 1 0 0 0 0.25 0"/>
<feBlend mode="normal" in2="shape" result="effect1_innerShadow_74_2367"/>
</filter>
<clipPath id="bgblur_0_74_2367_clip_path" transform="translate(76 68)"><path d="M74 32H30C26.6863 32 24 34.6863 24 38V66C24 69.3137 26.6863 72 30 72H74C77.3137 72 80 69.3137 80 66V38C80 34.6863 77.3137 32 74 32Z"/>
</clipPath><filter id="filter1_i_74_2367" x="-26" y="-42" width="220" height="220" filterUnits="userSpaceOnUse" color-interpolation-filters="sRGB">
<feFlood flood-opacity="0" result="BackgroundImageFix"/>
<feBlend mode="normal" in="SourceGraphic" in2="BackgroundImageFix" result="shape"/>
<feColorMatrix in="SourceAlpha" type="matrix" values="0 0 0 0 0 0 0 0 0 0 0 0 0 0 0 0 0 0 127 0" result="hardAlpha"/>
<feOffset/>
<feGaussianBlur stdDeviation="0.5"/>
<feComposite in2="hardAlpha" operator="arithmetic" k2="-1" k3="1"/>
<feColorMatrix type="matrix" values="0 0 0 0 1 0 0 0 0 1 0 0 0 0 1 0 0 0 0.25 0"/>
<feBlend mode="normal" in2="shape" result="effect1_innerShadow_74_2367"/>
</filter>
<clipPath id="bgblur_1_74_2367_clip_path" transform="translate(26 42)"><path d="M84 78C89.5228 78 94 73.5228 94 68C94 62.4772 89.5228 58 84 58C78.4772 58 74 62.4772 74 68C74 73.5228 78.4772 78 84 78Z"/>
</clipPath><linearGradient id="paint0_linear_74_2367" x1="51.9586" y1="35.4444" x2="51.9586" y2="109.444" gradientUnits="userSpaceOnUse">
<stop stop-color="white"/>
<stop offset="1" stop-color="#999999" stop-opacity="0"/>
</linearGradient>
<linearGradient id="paint1_linear_74_2367" x1="51.9586" y1="74" x2="40.5586" y2="28.8058" gradientUnits="userSpaceOnUse">
<stop stop-opacity="0"/>
<stop offset="1" stop-color="white" stop-opacity="0.4"/>
</linearGradient>
<linearGradient id="paint2_linear_74_2367" x1="83.9852" y1="59.7222" x2="83.9852" y2="96.7222" gradientUnits="userSpaceOnUse">
<stop stop-color="white"/>
<stop offset="1" stop-color="#999999" stop-opacity="0"/>
</linearGradient>
<linearGradient id="paint3_linear_74_2367" x1="83.9852" y1="79" x2="76.4386" y2="57.6301" gradientUnits="userSpaceOnUse">
<stop stop-opacity="0"/>
<stop offset="1" stop-color="white" stop-opacity="0.4"/>
</linearGradient>
</defs>
</svg>
