<svg width="8" height="8" viewBox="0 0 8 8" fill="none" xmlns="http://www.w3.org/2000/svg">
<path d="M4.07324 0C4.21679 0 4.3345 0.0542404 4.43457 0.15332L7.82129 3.58496C7.93882 3.70672 7.99565 3.84217 8 4C8 4.15784 7.94317 4.29291 7.82129 4.41016L4.43457 7.84668C4.33449 7.94576 4.21244 8 4.07324 8C3.7818 7.99977 3.55566 7.76488 3.55566 7.46289C3.55578 7.31439 3.61205 7.18365 3.71191 7.08008L6.32031 4.44434H0V3.55566H6.32031L3.71191 0.919922C3.61205 0.816346 3.55579 0.681126 3.55566 0.537109C3.55566 0.235117 3.7818 0.000231737 4.07324 0Z" fill="#FBFBFF" fill-opacity="0.8"/>
</svg>
