<svg width="27" height="30" viewBox="0 0 27 30" fill="none" xmlns="http://www.w3.org/2000/svg">
<path fill-rule="evenodd" clip-rule="evenodd" d="M13.3738 0.000653198C13.5997 -0.00447643 14.1529 0.0211717 14.604 0.0577203C15.055 0.0942689 15.7717 0.195579 16.1968 0.282783C16.622 0.369345 17.3172 0.555935 17.7424 0.697641C18.1676 0.839347 18.8842 1.13943 19.3353 1.36513C19.7863 1.5902 20.4538 1.97684 20.8178 2.22435C21.1818 2.47185 21.7924 2.94506 22.1741 3.2772C22.5557 3.60935 23.0383 4.06717 23.2465 4.29479C23.4547 4.52178 23.8073 4.93792 24.03 5.21941C24.2527 5.50026 24.6034 5.99014 24.8091 6.30753C25.0154 6.62493 25.3781 7.28857 25.6159 7.7823C25.8531 8.27603 26.161 9.02623 26.2998 9.44943C26.4379 9.87262 26.6215 10.5651 26.7079 10.9883C26.7943 11.4115 26.8953 12.0392 26.9325 12.3829C26.9773 12.7952 27 15.9038 27 30H23.7827L23.7505 12.5272L23.6029 11.8219C23.5215 11.434 23.3714 10.8569 23.2692 10.5395C23.1664 10.2221 22.9399 9.65974 22.7658 9.28913C22.5917 8.91851 22.2706 8.34143 22.0523 8.00672C21.834 7.67201 21.4669 7.1738 21.2366 6.90064C21.0064 6.62749 20.5837 6.19981 20.2973 5.95102C20.0109 5.70224 19.5214 5.32392 19.2091 5.10976C18.8968 4.89624 18.3859 4.59103 18.0736 4.43201C17.7613 4.27363 17.1797 4.03318 16.7804 3.89917C16.3811 3.76452 15.8423 3.61127 15.5818 3.55741C15.3219 3.50355 14.7825 3.4266 14.3832 3.38621C13.8369 3.33106 13.4394 3.33171 12.7745 3.38749C12.2888 3.42789 11.6643 3.50611 11.3867 3.55997C11.1091 3.61448 10.5836 3.75811 10.2196 3.88058C9.85563 4.0024 9.27337 4.24734 8.9264 4.42432C8.57944 4.60129 8.06846 4.90009 7.79089 5.08732C7.51332 5.27455 7.04523 5.6426 6.75 5.90421C6.45477 6.16647 6.06995 6.55183 5.89458 6.76086C5.71857 6.96989 5.44605 7.31422 5.28897 7.52582C5.13126 7.73741 4.84928 8.17023 4.66129 8.48762C4.47329 8.80502 4.2014 9.35325 4.05694 9.70591C3.91248 10.0586 3.72385 10.5921 3.63743 10.8921C3.55164 11.1922 3.42988 11.6968 3.3668 12.0142C3.26019 12.5516 3.25135 13.1883 3.21729 30H0L0.0195569 21.1033C0.039113 12.3265 0.0410053 12.197 0.174113 11.5013C0.247921 11.1134 0.411309 10.435 0.536846 9.99445C0.662384 9.55394 0.86236 8.95506 0.981589 8.66395C1.10082 8.37285 1.33738 7.85347 1.50708 7.50979C1.67678 7.1661 2.01364 6.58197 2.25589 6.21135C2.49813 5.84073 2.92269 5.26365 3.19963 4.92894C3.47593 4.59423 3.95853 4.07486 4.27079 3.77478C4.58369 3.47469 5.10603 3.022 5.43217 2.76809C5.75769 2.51417 6.32292 2.12368 6.68692 1.90054C7.05091 1.67804 7.66157 1.35552 8.04323 1.18496C8.42488 1.0144 9.03554 0.775868 9.39953 0.65404C9.76353 0.532852 10.4026 0.363574 10.8189 0.278294C11.2353 0.193014 11.8882 0.0981161 12.2699 0.0666972C12.6515 0.0352782 13.1486 0.00514162 13.3738 0.000653198ZM13.4369 6.79549C13.8495 6.791 14.4071 6.83011 14.7301 6.88718C15.0424 6.94232 15.5534 7.07441 15.8657 7.18085C16.1779 7.28729 16.6605 7.48863 16.9381 7.62777C17.2157 7.76755 17.6844 8.06443 17.979 8.28885C18.2736 8.51263 18.7145 8.90889 18.958 9.16922C19.2009 9.42891 19.5321 9.82966 19.6936 10.0586C19.8545 10.2875 20.1137 10.735 20.2689 11.0524C20.4247 11.3698 20.626 11.8533 20.7162 12.1265C20.807 12.3996 20.9237 12.876 20.9761 13.1844C21.0575 13.6647 21.0714 14.9125 21.0701 30H17.9159L17.9165 22.0972C17.9165 15.2491 17.9039 14.143 17.8213 13.8096C17.7683 13.598 17.615 13.1941 17.4806 12.9119C17.3456 12.6298 17.0617 12.1752 16.8504 11.902C16.6384 11.6289 16.2877 11.2711 16.0707 11.1076C15.8537 10.9434 15.4922 10.7241 15.2664 10.619C15.0405 10.5145 14.6576 10.3856 14.4147 10.3336C14.11 10.2676 13.7586 10.2477 13.2792 10.2695C12.7184 10.2945 12.4888 10.3369 12.0806 10.4888C11.803 10.5927 11.4125 10.7831 11.2132 10.9133C11.0139 11.0428 10.7193 11.2711 10.5584 11.4211C10.3975 11.5712 10.1458 11.8668 9.9982 12.0784C9.85058 12.29 9.6525 12.6221 9.55724 12.8157C9.46199 13.0094 9.33014 13.3851 9.26516 13.6493C9.15161 14.1078 9.14594 14.4976 9.1472 30H5.92991L5.92928 21.9048C5.92865 14.8599 5.94126 13.7346 6.02706 13.2325C6.08131 12.9151 6.21063 12.3958 6.31535 12.0784C6.42007 11.761 6.63897 11.2416 6.80299 10.9242C6.96638 10.6068 7.26035 10.131 7.45528 9.86621C7.65084 9.60204 8.01925 9.18141 8.27411 8.93134C8.52897 8.68191 8.96425 8.32347 9.24182 8.13432C9.51939 7.94581 10.002 7.66752 10.3143 7.5162C10.6265 7.36488 11.1375 7.16674 11.4498 7.07569C11.762 6.984 12.174 6.8859 12.3645 6.85704C12.555 6.82755 13.0382 6.79998 13.4369 6.79549Z" fill="white"/>
</svg>
